<svg width="16" height="14" viewBox="0 0 16 14" fill="none" xmlns="http://www.w3.org/2000/svg">
<path fill-rule="evenodd" clip-rule="evenodd" d="M12.7383 10.8342L12.4614 11.1111C12.1537 11.4188 11.7537 11.5726 11.3229 11.5726H10.5229C9.78444 11.5726 8.98444 10.988 8.98444 9.97262V9.20339C8.98444 8.588 9.26137 8.21877 9.41521 8.00339L12.7383 4.61877C12.8306 4.52646 12.9229 4.31108 12.9229 4.188V1.63415C12.9229 0.83415 12.246 0.157227 11.446 0.157227H3.56907C2.76908 0.157227 2.09215 0.895689 2.09215 1.63415H1.59985C1.046 1.63415 0.615234 2.09569 0.615234 2.64954C0.615234 3.20338 1.046 3.63415 1.59985 3.63415H2.09215V5.63415H1.59985C1.046 5.63415 0.615234 6.06492 0.615234 6.61877C0.615234 7.17262 1.046 7.60339 1.59985 7.60339H2.09215V9.60339H1.59985C1.046 9.60339 0.615234 10.0649 0.615234 10.588C0.615234 11.1419 1.046 11.5726 1.59985 11.5726H2.09215C2.09215 12.5572 2.76908 13.0495 3.56907 13.0495H11.446C12.246 13.0495 12.9229 12.3726 12.9229 11.5726V10.9265C12.9229 10.7726 12.8614 10.7418 12.7383 10.8342ZM10.2153 3.88016C10.2153 4.15709 9.99987 4.37247 9.72295 4.37247H4.79988C4.52296 4.37247 4.30758 4.15709 4.30758 3.88016V3.38786C4.30758 3.11093 4.52296 2.89555 4.79988 2.89555H9.72295C9.99987 2.89555 10.2153 3.11093 10.2153 3.38786V3.88016ZM7.99988 9.84984C7.99988 10.1268 7.78449 10.3421 7.50757 10.3421H4.79988C4.52296 10.3421 4.30758 10.1268 4.30758 9.84984V9.35753C4.30758 9.08061 4.52296 8.86523 4.79988 8.86523H7.50757C7.78449 8.86523 7.99988 9.08061 7.99988 9.35753V9.84984ZM8.73834 6.86545C8.73834 7.14237 8.52295 7.35776 8.24603 7.35776H4.79988C4.52296 7.35776 4.30758 7.14237 4.30758 6.86545V6.37314C4.30758 6.09622 4.52296 5.88083 4.79988 5.88083H8.24603C8.52295 5.88083 8.73834 6.09622 8.73834 6.37314V6.86545ZM15.2306 5.51062L14.9229 5.20293C14.7383 5.01831 14.4306 5.01831 14.246 5.20293L10.4922 9.07985C10.4614 9.07985 10.4614 9.14139 10.4614 9.14139V9.97216C10.4614 10.0337 10.4614 10.0952 10.523 10.0952H11.323C11.3537 10.0952 11.3845 10.0645 11.4153 10.0645L15.1999 6.24908C15.446 6.0337 15.446 5.726 15.2306 5.51062Z" fill="#25683E"/>
</svg>
